HIERARCHY
ROOT root
{
	OFFSET 0.000000 0.000000 0.000000
	CHANNELS 6 Xposition Yposition Zposition Zrotation Yrotation Xrotation
	JOINT lhip
	{
		OFFSET 0.058581 -0.082280 -0.017664
		CHANNELS 3 Zrotation Yrotation Xrotation
		JOINT lknee
		{
			OFFSET 0.043451 -0.386469 0.008037
			CHANNELS 3 Zrotation Yrotation Xrotation
			JOINT lankle
			{
				OFFSET -0.014790 -0.426874 -0.037428
				CHANNELS 3 Zrotation Yrotation Xrotation
				JOINT ltoe
				{
					OFFSET 0.041054 -0.060286 0.122042
					CHANNELS 3 Zrotation Yrotation Xrotation
					End Site
					{
						OFFSET 0.000000 0.000000 0.000000
					}
				}
			}
		}
	}
	JOINT rhip
	{
		OFFSET -0.060310 -0.090513 -0.013543
		CHANNELS 3 Zrotation Yrotation Xrotation
		JOINT rknee
		{
			OFFSET -0.043257 -0.383688 -0.004843
			CHANNELS 3 Zrotation Yrotation Xrotation
			JOINT rankle
			{
				OFFSET 0.019056 -0.420046 -0.034562
				CHANNELS 3 Zrotation Yrotation Xrotation
				JOINT rtoe
				{
					OFFSET -0.034840 -0.062106 0.130323
					CHANNELS 3 Zrotation Yrotation Xrotation
					End Site
					{
						OFFSET 0.000000 0.000000 0.000000
					}
				}
			}
		}
	}
	JOINT lowerback
	{
		OFFSET 0.004439 0.124404 -0.038385
		CHANNELS 3 Zrotation Yrotation Xrotation
		JOINT upperback
		{
			OFFSET 0.004488 0.137956 0.026820
			CHANNELS 3 Zrotation Yrotation Xrotation
			JOINT chest
			{
				OFFSET -0.002265 0.056032 0.002855
				CHANNELS 3 Zrotation Yrotation Xrotation
				JOINT lowerneck
				{
					OFFSET -0.013390 0.211636 -0.033468
					CHANNELS 3 Zrotation Yrotation Xrotation
					JOINT upperneck
					{
						OFFSET 0.010113 0.088937 0.050410
						CHANNELS 3 Zrotation Yrotation Xrotation
						End Site
						{
							OFFSET 0.000000 0.000000 0.000000
						}
					}
				}
				JOINT lclavicle
				{
					OFFSET 0.071702 0.114000 -0.018898
					CHANNELS 3 Zrotation Yrotation Xrotation
					JOINT lshoulder
					{
						OFFSET 0.122921 0.045205 -0.019046
						CHANNELS 3 Zrotation Yrotation Xrotation
						JOINT lelbow
						{
							OFFSET 0.255332 -0.015649 -0.022946
							CHANNELS 3 Zrotation Yrotation Xrotation
							JOINT lwrist
							{
								OFFSET 0.265709 0.012698 -0.007375
								CHANNELS 3 Zrotation Yrotation Xrotation
								End Site
								{
									OFFSET 0.000000 0.000000 0.000000
								}
							}
						}
					}
				}
				JOINT rclavicle
				{
					OFFSET -0.082954 0.112472 -0.023707
					CHANNELS 3 Zrotation Yrotation Xrotation
					JOINT rshoulder
					{
						OFFSET -0.113228 0.046853 -0.008472
						CHANNELS 3 Zrotation Yrotation Xrotation
						JOINT relbow
						{
							OFFSET -0.260127 -0.014369 -0.031269
							CHANNELS 3 Zrotation Yrotation Xrotation
							JOINT rwrist
							{
								OFFSET -0.269108 0.006794 -0.006027
								CHANNELS 3 Zrotation Yrotation Xrotation
								End Site
								{
									OFFSET 0.000000 0.000000 0.000000
								}
							}
						}
					}
				}
			}
		}
	}
}
MOTION
Frames: 5
Frame Time: 0.033333
0.521584 0.281725 1.015839 90.016899 2.473219 90.102111 -0.954041 4.365646 20.460764 -3.805866 -16.858162 40.894661 -16.232730 1.597116 24.324499 0.000000 -0.000000 0.000000 7.947153 1.114920 -26.899094 -1.725558 -18.011574 11.128636 11.719177 -2.951066 12.810433 0.000000 -0.000000 0.000000 3.106142 -8.939756 15.783434 -0.113423 1.951592 -5.083150 0.666736 -2.879441 1.361259 -2.885899 1.736718 -16.225897 3.269243 6.361706 -1.814160 -23.381880 12.053001 -2.509887 -56.842001 -9.350248 12.847011 164.906759 -66.357235 -149.361097 4.032146 -16.404891 -31.594883 18.937819 -13.055435 1.031193 61.316692 -22.363123 15.404313 -164.910917 76.539329 -149.736832 1.655483 16.272850 -22.219397 
0.607070 0.283401 1.001058 88.082509 2.663015 88.909588 -0.914552 4.956701 17.556996 -5.109619 -14.152350 52.935360 -15.038898 0.309307 25.259463 0.000000 -0.000000 0.000000 9.046533 2.031688 -25.208626 -1.872194 -16.043619 15.412656 9.207205 -1.618187 12.173981 0.000000 -0.000000 0.000000 3.292409 -8.215664 16.980874 -0.100090 2.599871 -4.348546 0.387864 -2.246252 1.414738 -3.229987 1.186750 -16.071570 3.223218 6.705212 -2.152723 -24.130071 10.790102 -2.422339 -58.585278 -7.582656 13.191996 162.195106 -68.880399 -145.745063 5.892336 -15.372134 -32.059953 19.614726 -11.255628 0.399599 63.173738 -21.324529 14.271059 -158.506207 76.539222 -142.682615 3.119334 20.906911 -25.680518 
0.750450 0.283779 0.964020 85.997891 2.808349 88.314407 1.531819 5.319439 9.472405 -6.299173 -7.226454 72.338376 -8.893230 3.144877 25.445685 0.000000 -0.000000 0.000000 10.353345 4.899922 -23.522603 -0.234380 -7.847335 29.921097 -7.538205 -5.477964 -7.177759 0.000000 -0.000000 0.000000 3.251298 -6.897837 16.581445 0.667724 3.312870 -4.279711 -0.378220 -1.620701 2.621737 -2.829020 1.435684 -16.108693 2.331615 6.217282 0.262436 -25.497887 10.929774 -2.197531 -59.440274 -4.975338 11.705206 165.846971 -74.709784 -148.884803 5.642546 -11.392902 -30.905248 22.443870 -8.546189 0.083461 63.182278 -16.811593 14.651673 -152.001441 76.341590 -135.107492 1.846245 19.437490 -27.401879 
0.854626 0.283362 0.940483 84.036635 2.767001 88.814224 4.170146 3.532896 0.193632 -5.343021 -0.350646 84.948787 -3.832582 5.402377 17.953923 0.000000 -0.000000 0.000000 12.611799 8.235554 -20.595333 -1.457032 -4.863800 38.021035 -11.022255 -13.662484 -16.024771 0.000000 -0.000000 0.000000 1.828362 -4.875125 17.318302 2.020832 4.355263 -4.799400 -0.076076 -1.516918 3.480036 -1.722942 2.372424 -19.567987 -0.084227 5.628574 3.655551 -27.861852 11.999144 -2.101707 -58.216746 -2.873028 11.646773 166.927060 -79.960667 -150.909770 9.028904 -10.001800 -29.843588 27.172274 -6.596070 -2.525673 58.812113 -10.569617 19.015858 -147.051365 75.049048 -129.795794 -0.862123 15.291365 -24.643224 
0.960259 0.285205 0.933530 84.203858 1.482293 89.938186 4.811410 1.355487 -11.370833 -4.998431 3.310650 92.215164 -0.845695 5.309991 10.169099 0.000000 -0.000000 0.000000 12.397060 7.253692 -14.089611 -1.359402 -2.086910 38.113335 -10.255868 -17.314091 -21.917787 0.000000 -0.000000 0.000000 -0.313799 -2.418389 16.470230 3.411807 2.882969 -3.842809 0.423606 -1.291048 2.808007 -0.448498 2.644591 -21.119406 -1.556209 4.821111 4.336500 -28.720979 13.392790 -0.759590 -57.076981 0.171056 10.552574 -174.958614 -82.864966 -168.688293 7.230913 -11.167792 -29.528164 29.712742 -4.616300 -3.339793 55.832920 -3.027377 20.776640 -149.378023 73.664946 -131.699817 -0.593946 16.359392 -24.443938 
